<svg xmlns="http://www.w3.org/2000/svg" viewBox="0 0 3349 1500" width="3349" height="1500">
    <defs>
        <linearGradient id="grd1" gradientUnits="userSpaceOnUse" x1="994.486" y1="2260.994" x2="994.486" y2="737.998">
            <stop offset="1" stop-color="#232323" stop-opacity="0.6" />
        </linearGradient>
        <linearGradient id="grd2" gradientUnits="userSpaceOnUse" x1="3000.27" y1="641.904" x2="3000.27" y2="-404.132">
            <stop offset="1" stop-color="#1c1c1c" stop-opacity="0.502" />
        </linearGradient>
        <linearGradient id="grd3" gradientUnits="userSpaceOnUse" x1="652.144" y1="674.853" x2="652.144" y2="-360.062">
            <stop offset="1" stop-color="#a80000" stop-opacity="0.8" />
        </linearGradient>
        <linearGradient id="grd4" gradientUnits="userSpaceOnUse" x1="0" y1="0" x2="0" y2="0">
            <stop offset="1" stop-color="#a80000" stop-opacity="0.8" />
        </linearGradient>
        <!-- https://www.photopea.com/ + https://convertio.co/ru/ -->
    </defs>
    <path style="fill: #1d1d1d" d="M2637,1655l823,-120l10,-731l-693,144l-394,618z" />
    <path style="fill: url(#grd1)" d="M-842.01,2219.91l1822.2,41.08l1850.8,-917.55l-2435.74,-8.13l-600.41,-597.32z" />
    <path style="fill: url(#grd2)" d="M1809.07,-112.96l642.41,264.87l711.93,1.34l796.44,488.65l-155.78,-457.71l400.38,-104.84l-956.87,-438.26l-1391.08,-45.22l-60.42,303.36z" />
    <path style="fill: url(#grd3)" d="M-128.77,674.85l1103.39,-230.96l641.51,-599.46l-1927.98,-204.49z" />
    <path style="fill: url(#grd4)" d="M393,1064" />
    <path style="fill: #b7191f" d="M3392,1079" />
    <g transform="translate(0.000000,1500.000000) scale(0.100000,-0.100000)" fill="#000000" stroke="none">
        <path d="M21500 12650 c-49 -16 -116 -53 -167 -92 l-51 -39 -62 16 c-34 9 -71 13 -83 9 -42 -12 -271 -126 -315 -156 -24 -16 -107 -62 -185 -100 -78 -39 -182 -96 -232 -126 -132 -81 -220 -129 -310 -168 -44 -20 -116 -57 -160 -83 -44 -27 -162 -89 -262 -140 -100 -50 -204 -104 -230 -120 -28 -16 -72 -31 -103 -35 -58 -7 -152 -50 -210 -95 -19 -15 -116 -69 -215 -120 -99 -52 -211 -115 -250 -140 -104 -70 -227 -143 -340 -200 -54 -28 -108 -60 -120 -70 -11 -10 -49 -35 -85 -56 -36 -21 -99 -61 -140 -90 -95 -65 -197 -125 -214 -125 -7 0 -29 11 -48 24 -36 24 -135 53 -198 58 -46 3 -111 -10 -130 -27 -8 -7 -71 -44 -140 -82 -225 -125 -376 -237 -412 -308 -21 -40 -47 -127 -58 -193 -9 -54 3 -206 19 -227 4 -5 9 -30 10 -55 1 -25 8 -57 16 -72 17 -34 20 -32 -190 -150 -198 -113 -323 -188 -670 -408 -159 -101 -352 -219 -428 -262 -176 -100 -443 -266 -527 -329 -36 -26 -121 -77 -189 -113 -68 -37 -142 -79 -165 -95 -103 -73 -391 -253 -459 -287 -65 -33 -173 -103 -212 -139 -16 -15 -40 -34 -53 -43 -43 -28 -82 -132 -82 -219 0 -29 -3 -53 -7 -53 -5 0 -24 -15 -43 -33 -105 -96 -225 -198 -289 -247 -133 -100 -245 -191 -318 -257 -68 -62 -99 -86 -227 -176 -82 -58 -126 -102 -126 -126 0 -18 4 -20 28 -15 15 4 52 18 82 32 30 15 82 36 115 48 104 38 546 229 642 277 51 26 149 69 218 97 l126 50 27 -19 c15 -11 57 -28 93 -37 65 -17 67 -17 122 5 30 12 106 58 169 101 62 43 257 165 433 271 309 186 492 302 565 360 19 15 116 74 215 131 99 58 239 144 310 192 72 47 148 98 170 113 22 15 165 110 317 212 264 177 325 216 600 386 l117 73 48 -51 c84 -90 120 -118 185 -142 35 -13 88 -33 118 -44 76 -29 143 -27 237 8 139 51 219 88 289 134 38 24 89 56 114 70 69 39 175 141 199 192 12 25 28 76 37 113 8 37 19 71 24 75 4 5 3 25 -3 44 -11 34 -10 37 25 67 20 18 75 54 122 81 47 28 135 82 196 120 60 39 147 90 192 115 45 25 141 86 213 136 71 50 209 137 305 193 96 57 200 121 231 143 79 55 157 147 205 242 40 80 42 82 142 146 56 36 139 94 184 129 155 121 233 177 328 235 94 58 319 220 331 239 4 5 11 7 16 4 6 -4 35 13 66 37 31 24 102 71 157 105 55 34 100 66 100 71 0 4 33 33 73 63 39 30 81 64 91 76 11 11 23 21 29 21 5 0 27 14 48 31 43 34 81 98 79 132 -3 35 -1 47 10 47 15 0 132 85 182 134 75 72 90 151 52 274 l-7 24 105 -4 106 -3 115 -57 c209 -104 378 -259 512 -468 58 -90 178 -318 201 -380 73 -202 105 -484 73 -642 -14 -68 -86 -218 -138 -288 -46 -61 -199 -220 -213 -220 -5 0 -43 24 -86 54 -174 121 -355 208 -516 246 -144 35 -423 25 -610 -21 -199 -50 -374 -174 -447 -317 -20 -38 -25 -66 -27 -148 -2 -55 1 -119 7 -141 28 -102 131 -197 263 -242 140 -48 465 -50 678 -5 198 42 409 135 613 272 60 39 113 72 117 72 17 0 60 -67 84 -132 52 -136 59 -347 16 -461 -35 -94 -116 -203 -255 -346 -141 -144 -224 -212 -325 -265 -111 -58 -157 -67 -355 -73 -201 -6 -265 0 -528 52 -257 50 -609 103 -802 120 -197 17 -650 20 -775 5 -347 -43 -829 -193 -1162 -361 -293 -149 -666 -431 -981 -743 -328 -324 -435 -591 -413 -1031 8 -163 24 -234 85 -360 144 -301 422 -527 763 -619 165 -45 290 -58 568 -58 341 -1 457 21 678 127 138 66 241 136 348 238 l82 77 86 -50 c48 -27 105 -62 129 -78 63 -44 175 -104 241 -131 54 -22 64 -23 120 -13 83 16 217 68 239 93 23 29 22 62 -8 149 -14 40 -25 78 -25 84 0 6 36 26 80 45 134 57 185 137 125 196 -18 19 -35 25 -67 25 -24 1 -88 2 -142 3 l-99 2 -14 40 c-39 107 -83 238 -83 246 0 5 51 34 114 63 63 30 120 64 130 77 25 36 20 76 -13 110 -36 35 -77 38 -183 10 -141 -37 -132 -39 -172 35 -20 35 -36 75 -36 88 0 25 -33 60 -67 70 -33 11 -165 -29 -255 -76 -75 -39 -128 -85 -128 -113 0 -7 -12 -34 -26 -60 -23 -41 -31 -81 -60 -304 -36 -275 -40 -335 -24 -376 9 -23 5 -31 -32 -71 -108 -117 -329 -249 -500 -298 -142 -41 -238 -49 -503 -43 -267 6 -358 18 -525 73 -319 103 -575 362 -645 653 -23 94 -17 441 10 541 45 168 137 313 314 493 275 281 629 559 904 708 279 152 711 299 1062 361 143 25 490 34 721 19 259 -17 610 -67 949 -137 171 -35 192 -37 416 -42 266 -5 345 5 471 58 146 60 315 192 480 375 119 132 199 249 242 353 31 76 31 79 31 252 0 137 -4 189 -18 240 -19 72 -72 186 -109 239 l-24 34 90 91 c149 150 255 326 292 482 21 89 14 421 -11 529 -46 204 -154 439 -302 665 -130 196 -345 390 -547 492 -154 78 -271 100 -419 79 l-78 -11 -46 35 c-39 30 -53 35 -97 34 -28 0 -62 -4 -76 -9z m-262 -232 c49 -25 118 -100 150 -163 59 -116 111 -295 86 -295 -5 0 -20 19 -33 43 -30 56 -84 95 -106 77 -22 -18 -20 -28 30 -114 49 -87 53 -101 29 -110 -20 -8 -17 -12 -32 49 -18 71 -56 125 -87 125 -37 0 -40 -22 -12 -84 14 -29 28 -69 32 -87 4 -19 11 -39 16 -45 6 -7 2 -17 -10 -28 -18 -17 -20 -16 -31 21 -33 102 -82 149 -129 123 -26 -13 -27 -30 -2 -62 11 -13 30 -52 44 -86 24 -57 24 -63 9 -78 -15 -15 -17 -14 -30 26 -8 23 -33 62 -56 86 -35 36 -49 44 -79 44 -49 0 -49 -23 1 -87 68 -85 81 -132 42 -153 -17 -9 -20 -8 -20 10 0 25 -47 114 -75 139 -30 29 -73 37 -81 16 -7 -17 -2 -29 56 -135 37 -69 38 -91 1 -113 l-28 -17 -7 39 c-8 54 -65 160 -99 185 -22 16 -32 18 -45 10 -22 -15 -17 -45 19 -114 29 -57 46 -96 59 -143 7 -21 5 -29 -9 -37 -15 -7 -21 -4 -32 18 -36 69 -82 141 -103 161 -28 26 -59 24 -64 -3 -5 -22 18 -96 28 -96 4 0 10 -8 14 -17 3 -10 17 -38 31 -62 14 -24 25 -50 25 -57 0 -11 -50 -54 -63 -54 -2 0 -7 20 -9 44 -7 55 -54 151 -91 182 -16 13 -39 24 -53 24 -36 0 -31 -35 21 -137 53 -104 63 -167 29 -189 -20 -14 -22 -11 -45 46 -48 121 -122 189 -159 146 -10 -13 -10 -22 0 -46 7 -16 15 -30 19 -30 11 0 81 -148 81 -171 0 -8 -52 -39 -65 -39 -3 0 -5 9 -5 21 0 22 -60 153 -82 180 -29 34 -66 51 -87 39 -30 -15 -26 -40 13 -99 19 -28 38 -60 41 -71 3 -11 10 -20 14 -20 4 0 8 -6 9 -12 1 -7 6 -33 11 -58 9 -40 8 -47 -11 -63 -26 -22 -28 -19 -39 40 -11 58 -45 148 -71 185 -24 35 -64 46 -85 25 -13 -13 -13 -18 0 -48 46 -102 58 -133 70 -186 17 -77 16 -93 -10 -110 -20 -14 -21 -12 -28 27 -20 119 -80 253 -119 266 -54 18 -49 -60 13 -201 13 -29 31 -109 31 -138 0 -16 -12 -35 -36 -53 -42 -34 -59 -36 -60 -9 0 11 -3 27 -6 35 -3 8 -16 53 -29 100 -25 92 -64 200 -77 209 -4 3 -18 28 -32 56 -28 56 -24 50 -139 169 -52 53 -96 90 -115 95 -28 8 -29 9 -11 16 78 31 583 309 680 375 43 29 52 35 245 143 69 38 143 82 165 97 22 15 112 69 200 120 88 50 167 98 176 107 44 38 131 38 207 1z m512 -145 l0 -48 -86 -57 c-47 -32 -89 -58 -94 -58 -5 0 -16 13 -24 29 -14 26 -14 30 7 48 12 11 42 33 67 50 25 16 63 42 85 56 22 15 41 27 42 27 2 0 3 -21 3 -47z m-1876 -1481 c5 -9 -17 -79 -39 -122 -8 -15 -38 -41 -67 -58 -29 -16 -84 -53 -123 -82 -100 -75 -311 -213 -375 -245 -81 -41 -251 -148 -333 -209 -40 -30 -139 -93 -222 -141 -82 -48 -180 -107 -217 -131 -37 -24 -69 -40 -71 -36 -3 4 -7 24 -11 45 -22 120 -129 382 -207 506 -54 85 -190 221 -276 277 -46 30 -83 58 -83 63 0 5 13 14 29 20 26 11 34 9 82 -22 97 -62 162 -135 327 -365 48 -68 128 -236 147 -312 16 -62 38 -100 57 -100 5 0 28 16 51 35 99 84 413 297 662 450 61 37 170 111 243 164 129 93 399 271 414 271 4 0 9 -4 12 -8z m-2482 -202 c90 -28 120 -45 223 -120 180 -131 279 -239 326 -350 12 -30 28 -62 36 -71 7 -9 10 -19 6 -23 -4 -4 0 -12 10 -17 9 -6 17 -17 17 -24 0 -8 5 -15 10 -15 6 0 10 -8 10 -17 0 -10 15 -43 33 -73 32 -53 89 -236 108 -345 8 -46 5 -125 -7 -182 -7 -33 17 -29 76 13 28 20 53 34 56 32 10 -11 -18 -60 -52 -91 -46 -40 -125 -97 -135 -97 -5 0 3 24 16 53 26 54 34 142 16 175 -4 9 -11 57 -15 106 -3 49 -10 94 -15 100 -4 6 -11 24 -15 41 -8 30 -13 41 -105 238 -28 60 -51 111 -51 114 0 2 -11 19 -25 37 -14 18 -30 48 -37 67 -6 19 -34 54 -62 79 -27 25 -77 72 -111 105 -147 143 -232 198 -378 245 -56 18 -66 24 -56 36 15 18 14 19 121 -16z m4605 -88 c51 -17 125 -48 164 -68 86 -43 242 -138 257 -157 9 -11 -6 -24 -71 -67 -185 -121 -369 -203 -547 -243 -81 -18 -129 -21 -326 -21 l-231 -1 -79 40 c-68 34 -82 46 -101 85 -27 51 -31 142 -10 193 23 53 122 143 201 182 137 67 297 96 516 91 120 -3 145 -7 227 -34z m-4767 -28 c70 -21 254 -105 270 -123 3 -3 18 -12 33 -20 15 -8 50 -38 78 -67 27 -29 56 -57 64 -62 38 -21 153 -197 220 -337 109 -227 135 -322 135 -494 0 -109 -16 -154 -76 -228 -43 -53 -146 -107 -221 -118 -41 -5 -68 -2 -123 15 -38 12 -72 26 -75 31 -4 5 -15 9 -26 9 -10 0 -19 4 -19 8 0 5 -17 18 -38 30 -41 23 -142 120 -142 137 0 10 158 107 192 118 9 3 42 36 73 74 65 80 91 149 81 221 -8 57 -55 192 -67 192 -5 0 -9 6 -9 13 0 21 -107 125 -172 168 -56 36 -68 40 -105 35 -48 -6 -234 -97 -308 -150 l-49 -36 -22 28 c-23 27 -40 98 -50 207 -5 47 -1 80 19 151 14 50 32 103 42 117 53 82 177 116 295 81z m118 -514 c23 -11 42 -25 42 -30 0 -6 5 -10 10 -10 15 0 78 -70 93 -102 6 -16 15 -28 19 -28 5 0 8 -9 8 -19 0 -11 4 -22 8 -25 11 -6 35 -112 34 -147 0 -15 -6 -45 -12 -68 -10 -36 -18 -45 -63 -67 -111 -54 -274 -153 -587 -356 -85 -56 -234 -149 -330 -208 -96 -59 -236 -147 -310 -195 -74 -48 -160 -104 -190 -123 -30 -19 -84 -54 -120 -78 -36 -23 -191 -122 -345 -219 -154 -98 -311 -199 -350 -225 -38 -25 -155 -97 -260 -160 -104 -62 -256 -156 -336 -209 l-147 -96 -4 95 c-5 93 -6 97 -54 175 -63 103 -130 169 -194 192 -28 10 -50 20 -50 23 0 8 142 94 305 185 227 128 402 237 707 439 158 105 322 211 365 235 43 24 113 66 155 92 42 27 79 49 83 49 3 0 40 22 83 48 148 93 330 202 337 202 4 0 87 50 184 112 97 61 209 132 249 157 109 68 260 166 412 266 199 131 190 128 258 95z m-3189 -2032 c70 -25 111 -60 142 -119 26 -53 52 -155 44 -179 -4 -11 -2 -20 4 -20 17 0 13 -89 -5 -120 -9 -15 -36 -37 -61 -49 -50 -24 -52 -25 -89 -10 l-28 10 44 26 c91 53 92 55 88 168 -3 94 -5 105 -36 156 -39 63 -85 99 -142 109 -32 6 -49 2 -96 -21 -32 -16 -59 -27 -61 -25 -8 7 7 43 28 70 26 34 80 35 168 4z" />
        <path d="M22201 7710 c-306 -65 -544 -297 -606 -591 -81 -384 147 -759 535 -881 64 -19 96 -23 215 -23 119 0 151 4 215 23 276 87 478 303 535 573 80 382 -146 758 -530 879 -79 25 -286 36 -364 20z m320 -173 c136 -44 253 -130 328 -243 72 -107 96 -190 96 -329 0 -139 -24 -222 -96 -329 -58 -87 -134 -153 -228 -200 -99 -49 -153 -61 -276 -61 -123 0 -177 12 -276 61 -94 47 -170 113 -228 200 -72 107 -96 190 -96 329 0 139 24 222 96 329 58 87 134 153 228 200 58 29 87 39 176 60 38 9 230 -3 276 -17z" />
        <path d="M22068 7065 c-86 -48 -53 -185 45 -185 49 0 73 13 92 50 22 43 18 76 -12 110 -34 37 -85 47 -125 25z" />
        <path d="M22525 7068 c-49 -27 -70 -91 -45 -139 12 -22 61 -49 89 -49 34 0 72 23 87 51 23 45 17 78 -20 115 -36 36 -73 43 -111 22z" />
        <path d="M13675 3804 c-204 -28 -260 -45 -312 -96 -68 -66 -99 -246 -90 -528 9 -275 46 -384 151 -435 88 -43 214 -59 466 -59 318 0 467 31 529 109 57 74 81 208 81 459 0 299 -37 432 -135 487 -84 46 -174 60 -430 64 -126 2 -243 1 -260 -1z m483 -165 c83 -15 122 -43 144 -103 28 -73 41 -272 29 -408 -25 -262 -57 -283 -431 -283 -263 0 -338 13 -395 70 -46 46 -56 97 -62 296 -6 191 5 297 37 359 24 46 75 67 202 80 105 11 393 5 476 -11z" />
        <path d="M15985 3804 c-204 -28 -266 -47 -314 -96 -67 -68 -97 -249 -88 -528 9 -277 45 -383 149 -434 90 -44 215 -60 468 -60 318 0 467 31 529 109 57 74 81 208 81 459 0 299 -37 432 -135 487 -84 46 -174 60 -430 64 -126 2 -243 1 -260 -1z m483 -165 c83 -15 122 -43 144 -102 27 -73 41 -265 29 -405 -24 -267 -55 -287 -436 -287 -195 0 -239 3 -290 18 -136 42 -155 84 -162 348 -6 191 5 297 37 359 24 46 75 67 202 80 105 11 393 5 476 -11z" />
        <path d="M3630 3250 l0 -550 85 0 85 0 0 250 0 250 78 0 77 0 357 -250 357 -251 137 3 137 3 -359 255 c-197 140 -378 269 -402 286 l-44 32 384 258 383 259 -141 3 -140 3 -337 -226 -337 -225 -75 0 -75 0 -2 223 -3 222 -82 3 -83 3 0 -551z" />
        <path d="M5455 3438 c-104 -199 -234 -447 -288 -550 l-98 -188 95 0 95 0 63 120 63 120 387 0 387 0 63 -120 63 -120 93 0 c74 0 93 3 89 13 -3 8 -131 254 -285 548 l-281 534 -128 3 -128 2 -190 -362z m482 -58 c78 -151 143 -278 143 -282 0 -5 -137 -8 -305 -8 -217 0 -305 3 -305 11 0 6 64 135 143 285 117 227 145 274 161 272 14 -2 58 -76 163 -278z" />
        <path d="M6670 3250 l0 -550 85 0 85 0 0 250 0 250 78 0 78 0 357 -250 358 -251 136 3 136 3 -379 269 c-209 148 -389 277 -402 287 -23 17 -22 18 360 276 l383 258 -139 3 -140 3 -338 -226 -338 -225 -75 0 -75 0 -2 223 -3 222 -82 3 -83 3 0 -551z" />
        <path d="M8490 3428 c-107 -205 -237 -452 -288 -550 l-93 -178 95 0 95 0 63 120 63 120 387 0 387 0 63 -120 63 -120 92 0 c51 0 93 3 93 8 -1 4 -128 250 -285 547 l-283 540 -129 3 -128 2 -195 -372z m487 -48 c78 -151 143 -278 143 -282 0 -5 -137 -8 -305 -8 -213 0 -305 3 -305 11 0 6 64 134 143 285 118 229 145 274 162 272 14 -2 55 -73 162 -278z" />
        <path d="M9896 3789 c-100 -16 -187 -101 -218 -214 -14 -52 -13 -218 1 -273 13 -46 70 -117 103 -128 18 -5 15 -9 -21 -31 -24 -14 -52 -43 -68 -71 -27 -45 -28 -53 -32 -209 l-3 -163 85 0 86 0 3 154 c3 173 7 182 83 217 37 17 74 19 448 19 l407 0 0 -195 0 -195 85 0 85 0 0 550 0 550 -497 -1 c-274 -1 -520 -5 -547 -10z m874 -344 l0 -195 -410 0 c-458 0 -460 0 -498 69 -40 73 -40 191 2 253 45 68 45 68 499 68 l407 0 0 -195z" />
        <path d="M11940 3720 l0 -80 245 0 245 0 0 -470 0 -470 85 0 85 0 0 470 0 470 243 2 242 3 0 75 0 75 -572 3 -573 2 0 -80z" />
        <path d="M17160 3250 l0 -550 855 0 855 0 -2 548 -3 547 -82 3 -83 3 0 -476 0 -475 -300 0 -300 0 -2 473 -3 472 -82 3 -83 3 0 -476 0 -475 -300 0 -300 0 -2 473 -3 472 -82 3 -83 3 0 -551z" />
        <path d="M19150 3250 l0 -550 128 0 127 1 455 467 455 467 3 -467 2 -468 85 0 85 0 0 550 0 550 -119 0 -120 0 -463 -475 c-255 -261 -466 -475 -470 -475 -5 0 -8 214 -8 475 l0 475 -80 0 -80 0 0 -550z" />
        <path d="M20750 3250 l0 -550 494 0 c551 0 558 1 636 68 51 43 75 90 90 172 28 157 -28 302 -140 360 -67 34 -144 40 -532 40 l-378 0 0 150 0 150 473 2 472 3 0 75 0 75 -557 3 -558 2 0 -550z m919 -69 c79 -16 128 -68 137 -146 8 -71 -25 -132 -86 -162 -44 -23 -50 -23 -422 -23 l-378 0 0 170 0 170 353 0 c193 -1 372 -5 396 -9z" />
        <path d="M22237 3793 c-4 -3 -7 -251 -7 -550 l0 -543 85 0 85 0 0 250 0 250 80 0 80 0 358 -250 357 -250 140 0 140 0 -50 36 c-28 19 -209 148 -402 286 -194 138 -353 254 -353 257 1 3 169 119 375 256 206 138 374 253 375 258 0 4 -61 7 -135 7 l-135 0 -338 -225 -337 -225 -77 0 -78 0 0 225 0 225 -78 0 c-43 0 -82 -3 -85 -7z" />
        <path d="M24242 3783 c-5 -10 -134 -255 -286 -545 -152 -289 -276 -529 -276 -532 0 -3 42 -6 93 -6 l92 0 63 120 63 120 387 0 387 0 63 -120 63 -120 95 0 95 0 -98 188 c-54 103 -183 351 -288 550 l-190 362 -127 0 c-111 0 -128 -2 -136 -17z m301 -405 l146 -283 -306 -3 c-168 -1 -308 0 -310 2 -4 4 61 131 279 549 25 48 43 22 191 -265z" />
        <path d="M11190 3175 l0 -75 295 0 295 0 0 75 0 75 -295 0 -295 0 0 -75z" />
    </g>
</svg>