<svg width="115" height="115" xmlns="http://www.w3.org/2000/svg"><path fill="none" d="M-1-1h117v117H-1z"/><g><path d="M96 32.3v-2h-2.5v2h-2v5.4h6.3V32m-6.3 7.4v50.8l1.5 1 1.6 5.4 1.6-5.6 1.5-.8V39.7M34 23.7h33.4c4.3 0 4-5.6 0-6l-7.7-.6c-1.5 0-2.5-1.3-2.5-2.6 0-3.7-1-5.7-4.7-5.7h-4c-3.3 0-4.3 2-4.3 5.7 0 1.2-1 2.5-2.6 2.6l-7.7.7c-4 .4-4.4 6 0 6zM50.6 11c1.2 0 2.2 1 2.2 2 0 1.3-1 2.3-2.3 2.3-1.2 0-2.2-1-2.2-2.2 0-1 1-2 2.2-2z"/><path d="M72.5 21c0 1-.4 2-1 3-.6.5-1.7 1.2-3.4 1.2H33.3c-1.6 0-2.6-.7-3.2-1.3-.6-.8-1-2-1-3H17.2v85.3h67V21H72.5zm-39 69.8c-2 0-3.6-1.6-3.6-3.6s1.5-3.5 3.5-3.5 3.5 1.7 3.5 3.6-1.6 3.6-3.5 3.6v-.2zm0-15.3c-2 0-3.6-1.7-3.6-3.7s1.5-3.5 3.5-3.5S37 70 37 71.8s-1.6 3.6-3.5 3.6zm0-15.4c-2 0-3.6-1.5-3.6-3.4 0-2 1.5-3.5 3.5-3.5S37 55 37 57s-1.6 3.6-3.5 3.6zm0-15.2c-2 0-3.6-1.6-3.6-3.5s1.5-3.6 3.5-3.6 3.5 1.6 3.5 3.6-1.6 3.5-3.5 3.5zm8.8-5.6h28.4v4H42.2v-4zm0 15.4h28.4v4H42.2v-4zm0 0h28.4v4H42.2v-4zm28.4 19.2H42.2v-4h28.4v4z"/></g></svg>