<svg width="230" height="230" xmlns="http://www.w3.org/2000/svg"><path fill="none" d="M-1-1h232v232H-1z"/><g><path d="M192.7 50.3H39.2c-6.5 0-6.5 10 0 10h153.5c6.4 0 6.4-10 0-10z"/><path d="M187.7 211.2c-.5 8-16.4 5.2-21.5 5.2H49c-7.3 0-5.8-8.5-5.8-13.4V20.3c0-7.8 16.2-5.2 20.8-5.2h117.7c7.4 0 6 8 6 13v183.3c0 6.5 10 6.5 10 0V29c0-8.7.6-17.8-8.7-22.4-6.4-3.2-16.7-1.5-23.5-1.5H49C40 5 33.8 12 33.2 20.5v190c0 6.3 3 11.8 8.7 14.6 3 1.6 6.5 1.4 10 1.4h130c9 0 15-6.6 15.6-15.2.4-6.4-9.6-6.4-10 0z"/><path d="M114.6 37.2h26.2c9.7 0 9.8-15 0-15h-26c-9.7 0-9.8 15-.2 15zm53.6 94.2c-.3 23-15 43-37 49.8-22 6.8-46.2-2.6-58.7-21.7C60 140.2 62.2 114.3 77.2 97c15-17.3 40.7-22.3 61.4-12.5 18 8.5 29.3 27 29.6 47 0 6.4 10 6.4 10 0C178 108.7 165.8 88 146 77c-20-11-45-9.6-64 2.8-19 12.4-29.4 34.8-27.5 57.2 2 22.3 16.4 42 36.7 51 19.2 8.6 41.8 6.5 59.3-5 17.3-11.3 27.4-31 27.7-51.6 0-6.4-10-6.4-10 0z"/><path d="M151.6 131.4c-.3 19.6-15.8 35-35.4 35.4-19.6.4-35-16.3-35.4-35.4-.3-19.6 16.4-35 35.4-35.4 19.6-.3 35 16.4 35.4 35.4 0 4.5 7 4.5 7 0C158.2 109 141.3 91 119 89c-22-1.8-42 15.4-44.8 37-2.8 22 12.3 42.8 34.2 47 22 4.4 43.2-10 49-31.2 1-3.3 1.2-7 1.2-10.4 0-4.5-7-4.5-7 0zM91.2 10v45.3c0 6.4 10 6.4 10 0V10c0-6.4-10-6.4-10 0zm82 22.6h4.6c2.8 0 5-2.3 5-5s-2.2-5-5-5h-4.6c-2.7 0-5 2.3-5 5s2.3 5 5 5zm-2.8 79.4v39c0 6.3 10 6.3 10 0v-39c0-6.5-10-6.5-10 0zm-60.7-66.3h10c2 0 2-3 0-3h-10c-2 0-2 3 0 3zm16 0h10c2 0 2-3 0-3h-10c-2 0-2 3 0 3zm16 0h10c1.7 0 1.7-3 0-3h-10c-2 0-2 3 0 3zm15.8 0h10c1.8 0 1.8-3 0-3h-10c-2 0-2 3 0 3zM73.8 204.5c-.6 5.6-8 4.2-11.5 4.2s-10.8 1.4-11.5-4.2c-.6-5 0-10.5 0-15.7 0-5.5 8.6-4 11.5-4 3.4 0 11-1.5 11.5 4 .6 5 0 10.6 0 15.7 0 2 3 2 3 0v-13.2c0-4-1-9-5.8-9.5-4.6-.5-9.4 0-14 0-5 0-8.6 1.8-9.2 7-.5 4.3 0 9 0 13.3 0 4 1 9 6 9.6 4.5.5 9.3.2 14 .2 4.8 0 8.4-2 9-7.2.3-2-2.7-2-3 0z"/></g></svg>
