<svg xmlns="http://www.w3.org/2000/svg" viewBox="0 0 3000 400" width="3000" height="400">
<!-- https://www.photopea.com/ + https://convertio.co/ru/ + magic(it's not terminal command) -->
	<defs>
		<linearGradient id="grd1" gradientUnits="userSpaceOnUse"  x1="260" y1="560" x2="260" y2="-260">
			<stop offset="1" stop-color="#000000" stop-opacity="0.6" />
		</linearGradient>
		<linearGradient id="grd2" gradientUnits="userSpaceOnUse"  x1="2757.359" y1="406.302" x2="2757.359" y2="-133.373">
			<stop offset="1" stop-color="#000000" stop-opacity="0.702" />
		</linearGradient>
		<linearGradient id="grd3" gradientUnits="userSpaceOnUse"  x1="0" y1="0" x2="0" y2="0">
			<stop offset="1" stop-color="#000000" stop-opacity="0.929" />
		</linearGradient>
		<linearGradient id="grd4" gradientUnits="userSpaceOnUse"  x1="0" y1="0" x2="0" y2="0">
			<stop offset="1" stop-color="#ffffff" stop-opacity="0.4" />
		</linearGradient>
	</defs>
	<path style="fill: #c9c5c5" d="M1952,479l1109,42l-10,-540l-1039,-1l234,328z" />
	<path style="opacity: 0.859;fill: #8e0a0a" d="M1691,-14l331,200l1113,79l5,-391z" />
	<path style="fill: #c9c5c5" d="M-23,-121l-89,619l1039,-42l471,-493z" />
	<path style="opacity: 0.839;fill: #8e0a0a;stroke: #ffffff;stroke-width: 2.27" d="M-140,498l2110,-61l-1979,-204z" />
	<path style="fill: url(#grd1)" d="M160,-260l-208,264l156,304l-296,132l580,120l316,-212l-248,-412z" />
	<path style="fill: url(#grd2)" d="M3051.63,406.3l126.18,-333.08l-144.03,-187l-288.72,-19.6l-408.16,423.11l452.92,-27.72z" />
	<path style="fill: url(#grd3)" d="M1708,-580" />
	<path style="fill: url(#grd4)" d="M1924,328" />
	<g transform='translate(932, 200) scale(1.31,1.31)'>
		<path d="m 10.275,49.625 c -21.803,-2.633 -40.494,-13.99 -52.999,-30.145 l -2.282,0.652 c 13.879,15.807 33.504,26.863 55.281,29.493 z m -53.577,-30.899 c -11.004,-14.57 -17.029,-32.922 -15.882,-52.263 -2.172,-0.002 -4.419,0.067 -6.74,0.197 0.075,19.744 7.838,38.358 20.494,52.986 z m -12.798,-69.961 c 10.704,-36.345 46.524,-60.856 85.342,-56.167 16.853,2.036 31.846,9.283 43.562,19.929 0.91,-0.566 1.826,-1.125 2.745,-1.68 -12.614,-13.776 -29.577,-23.386 -48.982,-25.729 -42.576,-5.144 -81.701,23.329 -90.646,64.433 2.657,-0.286 5.317,-0.549 7.979,-0.786 z m 136.229,-28.632 c 13.679,16.212 20.877,37.826 18.143,60.462 2.695,-22.308 -3.739,-44.527 -16.378,-61.966 -0.595,0.498 -1.183,0.999 -1.765,1.504 z" style="fill:#e21c2a;stroke:none"/>
		<path d="m 0,0 c -14.98,-17.591 -27.677,-25.862 -39.516,-30.473 -19.525,-7.605 -49.918,0.823 -90.035,4.959 l 17.01,-10.66 c -25.01,3.573 -50.019,7.146 -75.028,10.718 55.358,-13.767 110.183,-27.645 166.949,-27.319 19.945,13.102 33.869,25.236 51.435,40.717 4.932,-20.835 9.864,-47.786 20.039,-59.882 25.426,-20.554 55.593,-34.62 89.3,-46.893 -53.089,31.805 -86.079,46.133 -94.601,106.775 13.845,-4.466 28.563,-8.932 43.281,-9.902 l -5.024,5.327 c -17.531,18.587 -58.018,28.334 -102.567,38.07 l 6.699,-10.718 -37.514,10.718 z" style="fill:#2c2c2b;stroke:none"/>
	</g>
	<g transform="translate(0.000000,400.000000) scale(0.100000,-0.100000)" fill="#000000" stroke="none">
		<path d="M13620 2881 l0 -50 -228 -3 c-222 -3 -229 -4 -277 -29 -41 -21 -55 -35 -80 -84 -29 -57 -30 -63 -30 -199 0 -162 15 -223 68 -274 62 -60 90 -66 330 -70 l217 -4 0 -49 0 -49 65 0 65 0 0 49 0 49 213 4 c205 3 214 4 268 29 95 45 130 128 131 310 0 170 -30 246 -115 292 -39 20 -57 22 -269 25 l-228 4 0 49 0 49 -65 0 -65 0 0 -49z m0 -382 l0 -211 -199 4 c-184 3 -202 5 -228 24 -39 29 -62 102 -62 194 1 101 16 149 58 177 32 22 43 23 232 23 l199 0 0 -211z m551 188 c47 -32 61 -80 57 -197 -4 -104 -16 -141 -61 -174 -26 -19 -44 -21 -223 -24 l-194 -3 0 210 0 211 194 0 c185 0 195 -1 227 -23z"/>
		<path d="M14567 2924 c-4 -4 -7 -198 -7 -431 l0 -423 70 0 70 0 0 155 0 155 290 0 c333 0 374 6 433 59 61 54 80 108 81 218 0 82 -3 98 -30 150 -22 43 -41 65 -78 88 l-49 30 -387 3 c-212 2 -389 0 -393 -4z m737 -124 c43 -16 66 -66 66 -143 0 -41 -6 -80 -15 -97 -30 -57 -45 -60 -365 -60 l-290 0 0 155 0 155 289 0 c164 0 301 -4 315 -10z"/>
		<path d="M15657 2923 c-4 -3 -7 -30 -7 -60 l0 -53 195 0 195 0 0 -370 0 -370 65 0 65 0 0 370 0 370 190 0 190 0 0 60 0 60 -443 0 c-244 0 -447 -3 -450 -7z"/>
		<path d="M16700 2500 l0 -430 65 0 65 0 0 195 0 195 65 0 65 0 280 -195 279 -196 106 3 106 3 -315 224 -316 224 283 190 c155 104 289 196 297 203 12 12 -2 14 -95 14 l-110 0 -259 -175 -259 -175 -64 0 -63 0 0 175 0 175 -65 0 -65 0 0 -430z"/>

		<path d="M20890 1555 c0 -25 0 -25 95 -25 95 0 95 0 95 25 0 25 0 25 -95 25 -95 0 -95 0 -95 -25z"/>
		<path d="M14986 1517 c-21 -7 -47 -23 -58 -37 -24 -33 -41 -139 -33 -209 16 -141 34 -154 215 -159 191 -6 237 14 243 104 2 36 0 39 -25 42 -24 3 -28 -1 -33 -32 -4 -19 -12 -39 -19 -44 -18 -15 -140 -24 -212 -16 -98 10 -104 19 -104 152 0 150 -4 146 158 150 79 2 138 -1 150 -7 11 -6 23 -26 26 -46 6 -31 10 -35 38 -35 30 0 31 0 24 43 -10 64 -28 84 -86 96 -66 14 -234 13 -284 -2z"/>
		<path d="M14332 1318 l3 -203 197 0 c194 0 197 0 222 24 39 37 52 88 32 134 -8 21 -22 40 -30 43 -14 5 -13 10 4 31 33 42 27 98 -14 139 l-34 34 -191 0 -191 0 2 -202z m374 128 c21 -29 17 -63 -8 -80 -18 -13 -52 -16 -160 -16 l-138 0 0 61 0 60 146 -3 c131 -3 147 -5 160 -22z m-6 -159 c19 -9 26 -22 28 -48 5 -64 -8 -69 -179 -69 l-149 0 0 65 0 65 138 0 c90 0 146 -5 162 -13z"/>
		<path d="M15460 1315 l0 -205 198 2 197 3 0 25 0 25 -167 3 -168 2 0 60 0 60 163 2 162 3 0 25 0 25 -162 3 -163 2 0 60 0 60 170 0 170 0 0 25 0 25 -200 0 -200 0 0 -205z"/>
		<path d="M15960 1315 l0 -205 30 0 30 0 0 180 0 180 160 0 160 0 0 25 0 25 -190 0 -190 0 0 -205z"/>
		<path d="M16460 1433 c0 -82 -13 -205 -26 -245 -3 -10 -12 -18 -20 -18 -11 0 -14 -17 -14 -81 l0 -80 28 3 c25 3 27 7 30 51 l3 47 189 0 189 0 3 -47 c3 -44 5 -48 31 -51 l27 -3 0 80 c0 65 -3 81 -15 81 -13 0 -15 26 -15 175 l0 175 -205 0 -205 0 0 -87z m350 -113 l0 -150 -156 0 -156 0 6 28 c3 15 9 82 12 150 l7 122 144 0 143 0 0 -150z"/>
		<path d="M17075 1329 c-55 -104 -101 -196 -103 -204 -3 -11 5 -15 26 -15 25 0 35 8 56 45 l27 45 147 0 148 0 22 -45 c20 -41 25 -45 58 -45 l35 0 -80 153 c-44 83 -93 176 -108 204 l-28 53 -50 0 -50 0 -100 -191z m210 45 c28 -53 52 -100 53 -105 2 -5 -49 -9 -112 -9 l-116 0 46 93 c47 94 62 117 73 117 3 0 29 -43 56 -96z"/>
		<path d="M17850 1315 l0 -205 30 0 30 0 0 180 0 180 180 0 180 0 0 -180 0 -180 30 0 30 0 0 205 0 205 -240 0 -240 0 0 -205z"/>
		<path d="M18422 1318 l3 -203 198 -3 197 -2 0 30 0 30 -165 0 -165 0 0 60 0 60 160 0 160 0 0 30 0 30 -160 0 -160 0 0 60 0 60 165 0 165 0 0 25 0 25 -200 0 -200 0 2 -202z"/>
		<path d="M18930 1315 l0 -205 30 0 30 0 0 75 0 75 143 1 c82 0 157 5 177 12 49 17 72 65 67 136 -3 46 -9 59 -36 83 l-31 28 -190 0 -190 0 0 -205z m370 135 c24 -24 26 -77 4 -108 -14 -21 -21 -22 -165 -22 l-149 0 0 75 0 75 145 0 c132 0 147 -2 165 -20z"/>
		<path d="M19470 1315 l0 -205 183 0 c199 0 239 9 264 60 25 49 12 118 -26 147 -14 10 -14 13 4 33 39 43 15 139 -41 160 -14 6 -106 10 -205 10 l-179 0 0 -205z m358 139 c15 -11 22 -25 22 -50 0 -48 -22 -54 -186 -54 l-134 0 0 60 0 60 138 0 c108 0 142 -3 160 -16z m7 -166 c32 -14 43 -53 24 -87 -15 -26 -15 -26 -172 -29 l-157 -3 0 66 0 65 140 0 c85 0 149 -5 165 -12z"/>
		<path d="M20040 1315 l0 -205 175 0 c199 0 233 8 260 61 12 23 16 48 13 87 -4 47 -10 60 -37 84 l-31 28 -160 0 -160 0 0 75 0 75 -30 0 -30 0 0 -205z m370 -15 c24 -24 26 -77 4 -108 -14 -21 -21 -22 -165 -22 l-149 0 0 75 0 75 145 0 c132 0 147 -2 165 -20z"/>
		<path d="M20572 1318 l3 -203 30 0 30 0 3 203 2 202 -35 0 -35 0 2 -202z"/>
		<path d="M20732 1318 l3 -203 44 -3 44 -3 179 178 178 178 0 -178 0 -177 30 0 30 0 0 205 0 205 -49 0 -49 0 -171 -177 -171 -178 0 178 0 177 -35 0 -35 0 2 -202z"/>
	</g>
</svg>