<?xml version="1.0" encoding="UTF-8" standalone="no"?>
<svg
   xmlns:dc="http://purl.org/dc/elements/1.1/"
   xmlns:cc="http://creativecommons.org/ns#"
   xmlns:rdf="http://www.w3.org/1999/02/22-rdf-syntax-ns#"
   xmlns:svg="http://www.w3.org/2000/svg"
   xmlns="http://www.w3.org/2000/svg"
   viewBox="0 0 553.28003 553.28003"
   height="50"
   width="50"
   xml:space="preserve"
   id="svg2"
   version="1.1"><metadata
     id="metadata8"><rdf:RDF><cc:Work
         rdf:about=""><dc:format>image/svg+xml</dc:format><dc:type
           rdf:resource="http://purl.org/dc/dcmitype/StillImage" /></cc:Work></rdf:RDF></metadata><defs
     id="defs6" /><g
     transform="matrix(1.3333333,0,0,-1.3333333,0,553.28)"
     id="g10"><g
       transform="scale(0.1)"
       id="g12"><path
         id="path14"
         style="fill:#4c6fa2;fill-opacity:1;fill-rule:evenodd;stroke:none"
         d="M 639.418,4149.59 H 3510.17 c 353.13,0 639.42,-286.29 639.42,-639.42 V 639.422 C 4149.59,286.289 3863.3,0 3510.17,0 H 639.418 C 286.285,0 0,286.289 0,639.422 V 3510.17 c 0,353.13 286.285,639.42 639.418,639.42 v 0" /><path
         id="path16"
         style="fill:#ffffff;fill-opacity:1;fill-rule:nonzero;stroke:none"
         d="m 3014.75,2040.23 c 0,0 358.56,505.78 394.19,672 11.87,59.36 -14.25,92.62 -76,92.62 0,0 -206.58,0 -311.06,0 -71.24,0 -97.36,-30.87 -118.73,-75.99 0,0 -168.18,-358.35 -372.81,-584.16 -65.69,-73 -99.09,-94.97 -135.35,-94.97 -29.25,0 -42.74,24.38 -42.74,90.23 v 577.02 c 0,80.73 -9.5,104.48 -75.98,104.48 h -498.66 c -38,0 -61.75,-22.09 -61.75,-52.23 0,-76.03 116.36,-93.2 116.36,-299.2 v -425.05 c 0,-85.49 -4.75,-118.73 -45.12,-118.73 -106.85,0 -360.93,368.05 -503.4,785.98 -28.5,85.48 -59.37,109.23 -140.11,109.23 H 832.527 c -45.117,0 -78.363,-30.86 -78.363,-75.97 0,-83.11 97.356,-467.8 479.666,-983.09 256.45,-346.68 593.64,-534.27 897.58,-534.27 185.22,0 230.34,30.86 230.34,109.23 v 265.95 c 0,66.49 26.12,94.98 64.11,94.98 42.74,0 118.18,-13.73 294.45,-187.59 208.96,-199.47 223.21,-282.57 337.2,-282.57 h 349.05 c 35.62,0 68.86,16.62 68.86,75.98 0,78.37 -102.11,218.46 -258.83,384.69 -64.11,85.48 -168.59,178.08 -201.84,220.82 -47.48,49.87 -33.24,78.38 0,130.61" /></g></g></svg>
