<svg width="742" height="419" xmlns="http://www.w3.org/2000/svg" xmlns:svg="http://www.w3.org/2000/svg">
    <style type="text/css">
        .st1{fill:none;stroke:#5B98A6;stroke-width:14;}
        .st2{fill:#5B98A6;}
        .st3{fill:#355961;}
    </style>
    <g>
        <rect x="7" y="7" class="st1" width="728" height="405"/>
        <path class="st2" d="m196.4,151.3l0,6l-23.8,0l0,-6l23.8,0z"/>
        <path class="st2" d="m229.3,223.7l-28.8,-76.8l7.2,0l28.8,76.8l-7.2,0z"/>
        <path class="st2" d="m289.4,227.4l0,5.3l-53,0l0,-5.3l53,0z"/>
        <path class="st2" d="m317.3,145.9c-7.7,10.4 -13.3,24.1 -13.3,43.3c0,18.9 5.8,32.4 13.3,43l-7.3,0c-6.7,-8.8 -13.9,-22.3 -13.9,-43c0.1,-20.9 7.2,-34.4 13.9,-43.3l7.3,0z"/>
        <path class="st2" d="m334.7,145.8c4,7.8 8.7,20.5 10.2,28.2l-7.1,2.3c-1.5,-7.4 -5.9,-20 -10,-28.3l6.9,-2.2zm79.3,1.3c-0.3,1 -1.4,1.4 -2.8,1.4c-11.1,37.4 -28.5,60.3 -61.6,74.8c-1.1,-1.5 -3.5,-4.3 -5.1,-5.8c32.4,-13.7 49,-35 59.5,-73.5l10,3.1zm-45.7,-7.3c2.4,8.8 5.1,21.9 5.6,30.1l-7.5,1.2c-0.6,-8.4 -3,-21.1 -5.5,-30l7.4,-1.3z"/>
        <path class="st2" d="m424.3,232.3c7.5,-10.5 13.3,-24.3 13.3,-43.3c0,-19 -5.7,-32.5 -13.3,-43l7.2,0c6.8,8.7 13.9,22.2 13.9,43.1c0,20.8 -7.1,34.2 -13.9,43.2l-7.2,0z"/>
        <path class="st2" d="m505.2,227.4l0,5.3l-53,0l0,-5.3l53,0z"/>
        <path class="st2" d="m505.1,223.7l29.5,-76.8l7.2,0l-29.7,76.8l-7,0z"/>
        <path class="st2" d="m569.4,151.3l0,6l-23.8,0l0,-6l23.8,0z"/>
        <path class="st3" d="m53.75001,299c-9.6,0 -14.4,-4.5 -14.4,-13.5l0,-15.7l3,0l0,15.2c0,3.7 0.9,6.5 2.7,8.4c1.8,1.8 4.7,2.8 8.7,2.8c2.4,0 4.8,-0.4 7.1,-1.3c2.4,-0.9 4.3,-1.8 5.7,-2.8l0,-22.2l3,0l0,49l-3,0l0,-21.3l0.1,-2.3l-0.1,0c-4.3,2.5 -8.6,3.7 -12.8,3.7z"/>
        <path class="st3" d="m92.15001,318.9l0,-32.3l-13.3,0l0,-2.7l29.5,0l0,2.7l-13.3,0l0,32.3l-2.9,0z"/>
        <path class="st3" d="m111.95001,301.1c0,-5.1 1.8,-9.4 5.3,-12.9c3.5,-3.5 7.8,-5.3 12.8,-5.3s9.3,1.8 12.8,5.3c3.5,3.5 5.3,7.8 5.3,12.9c0,5.2 -1.8,9.6 -5.3,13.2c-3.5,3.6 -7.8,5.4 -12.8,5.4s-9.3,-1.8 -12.8,-5.4c-3.5,-3.6 -5.3,-8 -5.3,-13.2zm3.1,0c0,4.4 1.5,8.2 4.4,11.2c2.9,3 6.5,4.5 10.7,4.5c4.2,0 7.8,-1.5 10.7,-4.5c2.9,-3 4.4,-6.7 4.4,-11.2c0,-4.3 -1.5,-7.9 -4.4,-10.8c-2.9,-2.9 -6.5,-4.4 -10.7,-4.4c-4.2,0 -7.8,1.5 -10.7,4.4c-2.9,2.9 -4.4,6.5 -4.4,10.8z"/>
        <path class="st3" d="m157.25001,300.4l0,-2.8l19.3,0l0,2.8l-19.3,0z"/>
        <path class="st3" d="m193.65001,318.9l0,-32.3l-13.3,0l0,-2.7l29.5,0l0,2.7l-13.3,0l0,32.3l-2.9,0z"/>
        <path class="st3" d="m213.45001,301.1c0,-5.1 1.8,-9.4 5.3,-12.9c3.5,-3.5 7.8,-5.3 12.8,-5.3s9.3,1.8 12.8,5.3c3.5,3.5 5.3,7.8 5.3,12.9c0,5.2 -1.8,9.6 -5.3,13.2c-3.5,3.6 -7.8,5.4 -12.8,5.4s-9.3,-1.8 -12.8,-5.4c-3.5,-3.6 -5.3,-8 -5.3,-13.2zm3.1,0c0,4.4 1.5,8.2 4.4,11.2c2.9,3 6.5,4.5 10.7,4.5c4.2,0 7.8,-1.5 10.7,-4.5c2.9,-3 4.4,-6.7 4.4,-11.2c0,-4.3 -1.5,-7.9 -4.4,-10.8c-2.9,-2.9 -6.5,-4.4 -10.7,-4.4c-4.2,0 -7.8,1.5 -10.7,4.4c-2.9,2.9 -4.4,6.5 -4.4,10.8z"/>
        <path class="st3" d="m276.85001,318.9l0,-35l28.1,0l0,35l-2.9,0l0,-32.3l-22.2,0l0,32.3l-3,0z"/>
        <path class="st3" d="m314.65001,301.1c0,-5.1 1.8,-9.4 5.3,-12.9c3.5,-3.5 7.8,-5.3 12.8,-5.3c5,0 9.3,1.8 12.8,5.3c3.5,3.5 5.3,7.8 5.3,12.9c0,5.2 -1.8,9.6 -5.3,13.2c-3.5,3.6 -7.8,5.4 -12.8,5.4c-5,0 -9.3,-1.8 -12.8,-5.4c-3.6,-3.6 -5.3,-8 -5.3,-13.2zm3.1,0c0,4.4 1.5,8.2 4.4,11.2c2.9,3 6.5,4.5 10.7,4.5c4.2,0 7.8,-1.5 10.7,-4.5c2.9,-3 4.4,-6.7 4.4,-11.2c0,-4.3 -1.5,-7.9 -4.4,-10.8c-2.9,-2.9 -6.5,-4.4 -10.7,-4.4c-4.2,0 -7.8,1.5 -10.7,4.4c-3,2.9 -4.4,6.5 -4.4,10.8z"/>
        <path class="st3" d="m360.55001,318.9l0,-35l2.9,0l0,32.3l16.8,0l0,-32.3l2.9,0l0,32.3l16.8,0l0,-32.3l2.9,0l0,35l-42.3,0z"/>
        <path class="st3" d="m410.45001,319.1l0,-2.7c3.2,-0.5 5.4,-2.6 6.8,-6.3c1.4,-3.7 2,-8.9 2,-15.9l0,-10.4l19.6,0l0,35l-2.9,0l0,-32.3l-13.7,0l0,7.7c0,8.4 -1,14.5 -2.9,18.3c-1.9,4 -4.9,6.2 -8.9,6.6z"/>
        <path class="st3" d="m448.55001,301.1c0,-5.1 1.8,-9.4 5.3,-12.9c3.5,-3.5 7.8,-5.3 12.8,-5.3s9.3,1.8 12.8,5.3c3.5,3.5 5.3,7.8 5.3,12.9c0,5.2 -1.8,9.6 -5.3,13.2c-3.5,3.6 -7.8,5.4 -12.8,5.4s-9.3,-1.8 -12.8,-5.4c-3.6,-3.6 -5.3,-8 -5.3,-13.2zm3.1,0c0,4.4 1.5,8.2 4.4,11.2c2.9,3 6.5,4.5 10.7,4.5s7.8,-1.5 10.7,-4.5c2.9,-3 4.4,-6.7 4.4,-11.2c0,-4.3 -1.5,-7.9 -4.4,-10.8c-2.9,-2.9 -6.5,-4.4 -10.7,-4.4s-7.8,1.5 -10.7,4.4c-3,2.9 -4.4,6.5 -4.4,10.8z"/>
        <path class="st3" d="m511.95001,318.9l0,-35l2.9,0l0,15.6l22.9,0l0,-15.6l2.9,0l0,35l-2.9,0l0,-16.7l-22.9,0l0,16.7l-2.9,0z"/>
        <path class="st3" d="m550.45001,301.4c0,-5.7 1.7,-10.2 5,-13.5c3.3,-3.3 7.3,-4.9 12,-4.9c4.5,0 8,1.5 10.5,4.6c2.5,3.1 3.7,6.8 3.7,11.4c0,0.4 0,1 -0.1,1.9l-28.1,0c0,4.9 1.4,8.8 4.3,11.7c2.9,2.9 6.4,4.3 10.7,4.3c4.3,0 7.9,-1.5 10.8,-4.4l1.6,2.5c-1.5,1.4 -3.4,2.6 -5.7,3.5c-2.3,0.9 -4.5,1.3 -6.8,1.3c-5.1,0 -9.4,-1.7 -12.8,-5.1c-3.4,-3.5 -5.1,-7.9 -5.1,-13.3zm3.3,-3.3l24.9,0c-0.2,-4.1 -1.3,-7.1 -3.4,-9.2s-4.7,-3.2 -7.8,-3.2c-3.4,0 -6.4,1.1 -8.9,3.3c-2.6,2.2 -4.2,5.2 -4.8,9.1z"/>
        <path class="st3" d="m617.75001,318.9l0,-32.3l-13.3,0l0,-2.7l29.5,0l0,2.7l-13.3,0l0,32.3l-2.9,0z"/>
        <path class="st3" d="m638.35001,309.5c0,-1.6 0.3,-3.1 0.9,-4.4c0.6,-1.3 1.4,-2.4 2.2,-3.2c0.9,-0.8 2,-1.5 3.5,-2.1c1.4,-0.6 2.7,-1 3.9,-1.3c1.2,-0.3 2.6,-0.5 4.2,-0.7c1.6,-0.2 2.9,-0.3 3.8,-0.3c0.9,0 2,0 3.2,0l2.3,0l0,-1.2c0,-7 -3.2,-10.4 -9.6,-10.4c-3.7,0 -7.1,1.1 -10,3.4l-1.7,-2.4c1.4,-1.2 3.1,-2.1 5.3,-2.8s4.3,-1 6.6,-1c4.1,0 7.1,1.1 9.2,3.4c2.1,2.2 3.2,5.5 3.2,9.9l0,22.6l-3,0l0,-4.6l0.3,-3.1l-0.1,0c-0.9,2.4 -2.5,4.5 -4.7,6.1c-2.2,1.7 -4.7,2.5 -7.6,2.5c-3.2,0 -5.9,-0.9 -8.3,-2.6c-2.5,-2 -3.6,-4.5 -3.6,-7.8zm3,-0.2c0,2 0.8,3.8 2.4,5.3c1.6,1.5 3.8,2.3 6.6,2.3c3.6,0 6.5,-1.5 8.7,-4.6c2.2,-3.1 3.3,-6.5 3.3,-10.3l0,-1.9l-2.2,0c-1.4,0 -2.6,0 -3.5,0c-0.9,0 -2.2,0.1 -3.9,0.3c-1.7,0.2 -3.1,0.4 -4.2,0.8c-1.1,0.4 -2.2,0.9 -3.4,1.5c-1.2,0.6 -2.1,1.5 -2.7,2.6c-0.8,1.3 -1.1,2.6 -1.1,4z"/>
        <path class="st3" d="m677.05001,318.9l0,-35l2.9,0l0,15.5l6.1,0l11.5,-15.5l3.7,0l-12.7,16.7l0,0.1l14.1,18.2l-3.8,0l-12.7,-16.8l-6.1,0l0,16.8l-3,0z"/>
        <rect x="7" y="7" class="st2" width="728" height="68" fill="black"/>
        <path class="st3" d="m192.04999,383.8l0,-28l20.8,0l0,28l-1.7,0l0,-26.4l-17.4,0l0,26.4l-1.7,0z"/>
        <path class="st3" d="m220.34999,391.8l0,-28l1.7,0l0,2.4l-0.1,1.6l0.1,0c0.6,-1.4 1.5,-2.5 2.8,-3.3c1.3,-0.8 2.7,-1.2 4.4,-1.2c2.6,0 4.7,1 6.3,2.9s2.3,4.5 2.3,7.6s-0.8,5.7 -2.5,7.6c-1.7,1.9 -3.8,2.9 -6.4,2.9c-1.5,0 -2.9,-0.4 -4.2,-1.2c-1.3,-0.8 -2.2,-1.9 -2.8,-3.3l-0.1,0c0.1,0.5 0.2,1.1 0.2,1.8l0,10.3l-1.7,0l0,-0.1zm1.7,-18c0,2.4 0.6,4.4 1.9,6.2c1.3,1.7 2.9,2.6 5.1,2.6c2,0 3.7,-0.8 5.1,-2.4c1.4,-1.6 2,-3.7 2,-6.5c0,-2.7 -0.6,-4.8 -1.9,-6.4s-3,-2.4 -5,-2.4c-2,0 -3.7,0.7 -5.1,2.2c-1.5,1.5 -2.1,3.7 -2.1,6.7z"/>
        <path class="st3" d="m242.04999,373.6c0,-2.9 1,-5.4 3,-7.4c2,-2 4.5,-3 7.3,-3s5.3,1 7.3,3c2,2 3,4.5 3,7.4c0,3 -1,5.5 -3,7.5c-2,2.1 -4.5,3.1 -7.3,3.1s-5.3,-1 -7.3,-3.1c-2,-2 -3,-4.5 -3,-7.5zm1.8,0c0,2.5 0.8,4.7 2.5,6.4c1.7,1.7 3.7,2.6 6.1,2.6s4.4,-0.9 6.1,-2.6c1.7,-1.7 2.5,-3.8 2.5,-6.4c0,-2.5 -0.8,-4.5 -2.5,-6.2c-1.7,-1.7 -3.7,-2.5 -6.1,-2.5s-4.4,0.8 -6.1,2.5c-1.7,1.7 -2.5,3.8 -2.5,6.2z"/>
        <path class="st3" d="m268.24999,383.8l0,-20l1.7,0l0,14.2l-0.1,3.2l0.1,0c0.9,-1.3 1.7,-2.4 2.3,-3.2l10.9,-14.2l1.6,0l0,20l-1.7,0l0,-14.3l0.1,-3.1l-0.1,0c-0.9,1.3 -1.7,2.3 -2.3,3.1l-10.9,14.3l-1.6,0z"/>
        <path class="st3" d="m289.54999,381.4l1.1,-1.3c1.5,1.7 3.4,2.6 5.5,2.6c1.4,0 2.7,-0.4 3.8,-1.1s1.6,-1.9 1.6,-3.3c0,-1.3 -0.5,-2.3 -1.4,-3s-2.3,-1 -4.1,-1l-2.4,0l0,-1.6l2.2,0c1.6,0 2.8,-0.3 3.7,-1s1.3,-1.6 1.3,-2.9c0,-1.3 -0.4,-2.2 -1.3,-2.9c-0.9,-0.6 -2,-1 -3.4,-1c-1.9,0 -3.6,0.6 -4.9,1.9l-1,-1.4c1.7,-1.4 3.7,-2.2 6.1,-2.2c1.9,0 3.4,0.5 4.5,1.4c1.2,0.9 1.7,2.2 1.7,4c0,2.3 -1.1,3.8 -3.2,4.6l0,0.1c1.2,0.3 2.2,0.8 2.9,1.6c0.7,0.8 1.1,1.9 1.1,3.2c0,1.9 -0.7,3.4 -2.1,4.5c-1.4,1.1 -3.1,1.6 -5.1,1.6c-2.6,0 -4.8,-0.9 -6.6,-2.8z"/>
        <path class="st3" d="m307.44999,373.6c0,-2.9 1,-5.4 3,-7.4s4.5,-3 7.3,-3c2.9,0 5.3,1 7.3,3c2,2 3,4.5 3,7.4c0,3 -1,5.5 -3,7.5c-2,2.1 -4.5,3.1 -7.3,3.1c-2.9,0 -5.3,-1 -7.3,-3.1s-3,-4.5 -3,-7.5zm1.8,0c0,2.5 0.8,4.7 2.5,6.4c1.7,1.7 3.7,2.6 6.1,2.6c2.4,0 4.4,-0.9 6.1,-2.6c1.7,-1.7 2.5,-3.8 2.5,-6.4c0,-2.5 -0.8,-4.5 -2.5,-6.2c-1.7,-1.7 -3.7,-2.5 -6.1,-2.5c-2.4,0 -4.4,0.8 -6.1,2.5c-1.7,1.7 -2.5,3.8 -2.5,6.2z"/>
        <path class="st3" d="m333.64999,383.8l0,-20l1.7,0l0,18.4l9.6,0l0,-18.4l1.7,0l0,18.4l9.6,0l0,-18.4l1.7,0l0,20l-24.3,0z"/>
        <path class="st3" d="m362.24999,383.9l0,-1.6c1.8,-0.3 3.1,-1.5 3.9,-3.6c0.8,-2.1 1.2,-5.1 1.2,-9.1l0,-6l11.2,0l0,20l-1.7,0l0,-18.4l-7.8,0l0,4.4c0,4.8 -0.5,8.3 -1.6,10.5c-1.3,2.3 -2.9,3.6 -5.2,3.8z"/>
        <path class="st3" d="m383.54999,378.4c0,-0.9 0.2,-1.8 0.5,-2.5c0.3,-0.7 0.8,-1.4 1.3,-1.8c0.5,-0.5 1.2,-0.9 2,-1.2s1.6,-0.6 2.2,-0.8c0.7,-0.2 1.5,-0.3 2.4,-0.4c0.9,-0.1 1.7,-0.1 2.2,-0.2c0.5,0 1.1,0 1.8,0l1.3,0l0,-0.7c0,-4 -1.8,-6 -5.5,-6c-2.1,0 -4,0.6 -5.7,1.9l-1,-1.4c0.8,-0.7 1.8,-1.2 3,-1.6c1.2,-0.4 2.5,-0.6 3.8,-0.6c2.3,0 4.1,0.6 5.3,1.9c1.2,1.3 1.8,3.2 1.8,5.6l0,12.9l-1.7,0l0,-2.6l0.2,-1.8l-0.1,0c-0.5,1.4 -1.4,2.6 -2.7,3.5c-1.2,0.9 -2.7,1.4 -4.3,1.4c-1.8,0 -3.4,-0.5 -4.8,-1.5c-1.3,-0.8 -2,-2.2 -2,-4.1zm1.8,-0.1c0,1.1 0.5,2.2 1.4,3c0.9,0.9 2.2,1.3 3.8,1.3c2.1,0 3.7,-0.9 5,-2.6c1.3,-1.7 1.9,-3.7 1.9,-5.9l0,-1.1l-1.3,0c-0.8,0 -1.5,0 -2,0c-0.5,0 -1.3,0.1 -2.2,0.2c-1,0.1 -1.8,0.3 -2.4,0.5c-0.6,0.2 -1.3,0.5 -2,0.9c-0.7,0.4 -1.2,0.9 -1.5,1.5c-0.5,0.7 -0.7,1.4 -0.7,2.2z"/>
        <path class="st3" d="m414.24999,373.6c0,-2.9 1,-5.4 3,-7.4s4.5,-3 7.3,-3c2.9,0 5.3,1 7.3,3c2,2 3,4.5 3,7.4c0,3 -1,5.5 -3,7.5c-2,2.1 -4.5,3.1 -7.3,3.1c-2.9,0 -5.3,-1 -7.3,-3.1s-3,-4.5 -3,-7.5zm1.8,0c0,2.5 0.8,4.7 2.5,6.4c1.7,1.7 3.7,2.6 6.1,2.6c2.4,0 4.4,-0.9 6.1,-2.6c1.7,-1.7 2.5,-3.8 2.5,-6.4c0,-2.5 -0.8,-4.5 -2.5,-6.2c-1.7,-1.7 -3.7,-2.5 -6.1,-2.5c-2.4,0 -4.4,0.8 -6.1,2.5c-1.7,1.7 -2.5,3.8 -2.5,6.2z"/>
        <path class="st3" d="m440.54999,383.8l0,-20l1.7,0l0,18.4l9.6,0l0,-18.4l1.7,0l0,18.4l9.6,0l0,-18.4l1.7,0l0,20l-24.3,0z"/>
        <path class="st3" d="m471.74999,383.8l0,-20l1.7,0l0,14.2l-0.1,3.2l0.1,0c0.9,-1.3 1.7,-2.4 2.3,-3.2l10.9,-14.2l1.6,0l0,20l-1.7,0l0,-14.3l0.1,-3.1l-0.1,0c-0.9,1.3 -1.7,2.3 -2.3,3.1l-10.9,14.3l-1.6,0z"/>
        <path class="st3" d="m494.24999,372.6c0,-1.7 0.1,-3.2 0.3,-4.5c0.2,-1.3 0.5,-2.5 1.1,-3.7c0.5,-1.2 1.3,-2.3 2.3,-3.2c1,-0.9 2.3,-1.8 3.8,-2.6l7.6,-3.8l0.8,1.5l-7.8,3.8c-2.4,1.2 -4,2.6 -5,4.2c-0.9,1.6 -1.5,3.7 -1.7,6.2l0.1,0c1.6,-3.2 4.2,-4.8 7.9,-4.8c2.5,0 4.5,0.8 6,2.5c1.6,1.7 2.4,3.9 2.4,6.8c0,2.7 -0.8,5 -2.5,6.7c-1.6,1.7 -3.8,2.6 -6.3,2.6c-3,0 -5.3,-1.1 -6.8,-3.2s-2.2,-5 -2.2,-8.5zm2,2.2c0,2.4 0.7,4.3 2,5.7c1.3,1.4 3,2.1 5,2.1s3.7,-0.7 5,-2.1c1.3,-1.4 2,-3.3 2,-5.6s-0.7,-4.2 -2,-5.6c-1.3,-1.4 -2.9,-2.1 -4.9,-2.1c-2.1,0 -3.9,0.7 -5.2,2.2c-1.3,1.5 -1.9,3.3 -1.9,5.4z"/>
        <path class="st3" d="m517.74999,383.8l0,-20l1.7,0l0,8.8l3.5,0l6.6,-8.8l2.1,0l-7.2,9.5l0,0.1l8,10.4l-2.2,0l-7.3,-9.6l-3.5,0l0,9.6l-1.7,0z"/>
        <path class="st3" d="m534.54999,378.4c0,-0.9 0.2,-1.8 0.5,-2.5c0.3,-0.7 0.8,-1.4 1.3,-1.8c0.5,-0.5 1.2,-0.9 2,-1.2s1.6,-0.6 2.2,-0.8c0.7,-0.2 1.5,-0.3 2.4,-0.4c0.9,-0.1 1.7,-0.1 2.2,-0.2c0.5,0 1.1,0 1.8,0l1.3,0l0,-0.7c0,-4 -1.8,-6 -5.5,-6c-2.1,0 -4,0.6 -5.7,1.9l-1,-1.4c0.8,-0.7 1.8,-1.2 3,-1.6c1.2,-0.4 2.5,-0.6 3.8,-0.6c2.3,0 4.1,0.6 5.3,1.9c1.2,1.3 1.8,3.2 1.8,5.6l0,12.9l-1.7,0l0,-2.6l0.2,-1.8l-0.1,0c-0.5,1.4 -1.4,2.6 -2.7,3.5c-1.2,0.9 -2.7,1.4 -4.3,1.4c-1.8,0 -3.4,-0.5 -4.8,-1.5c-1.3,-0.8 -2,-2.2 -2,-4.1zm1.7,-0.1c0,1.1 0.5,2.2 1.4,3c0.9,0.9 2.2,1.3 3.8,1.3c2.1,0 3.7,-0.9 5,-2.6c1.3,-1.7 1.9,-3.7 1.9,-5.9l0,-1.1l-1.3,0c-0.8,0 -1.5,0 -2,0c-0.5,0 -1.3,0.1 -2.2,0.2c-1,0.1 -1.8,0.3 -2.4,0.5c-0.6,0.2 -1.3,0.5 -2,0.9c-0.7,0.4 -1.2,0.9 -1.5,1.5c-0.5,0.7 -0.7,1.4 -0.7,2.2z"/>
    </g>
</svg>
