<?xml version="1.0" encoding="utf-8"?>
<svg version="1.1" xmlns="http://www.w3.org/2000/svg" xmlns:xlink="http://www.w3.org/1999/xlink" x="0px" y="0px" viewBox="0 0 1018.5 147.3" xml:space="preserve">
    <style type="text/css">
        .st0{fill:#355961;}
        .st1{fill:#FFFFFF;}
        .st2{fill:#E0F5FE;}
    </style>
    <g>
        <path class="st0" d="m160.5,74.7c0,-16.8 9,-27.5 22.6,-27.5c6.2,0 10.9,3.1 13.6,6.3l-1.6,1.8c-2.9,-3.4 -7,-5.7 -12,-5.7c-12.3,0 -19.8,9.7 -19.8,25.1c0,15.4 7.5,25.4 19.5,25.4c5.7,0 9.9,-2.3 13.9,-6.8l1.6,1.6c-4,4.7 -8.7,7.6 -15.7,7.6c-13.1,0 -22.1,-11 -22.1,-27.8z"/>
        <path class="st0" d="m226.2,65.1l-16.7,0l0,-2.3l35.8,0l0,2.3l-16.7,0l0,36.4l-2.4,0l0,-36.4z"/>
        <path class="st0" d="m261.5,62.9l2.4,0l0,20.6c0,4.3 -0.2,9.6 -0.3,14.7l0.3,0c1.6,-2.4 4,-6 5.7,-8.4l18.5,-26.9l2.4,0l0,38.7l-2.4,0l0,-20.6c0,-4.3 0.2,-9.6 0.3,-14.7l-0.3,0c-1.6,2.4 -4,6 -5.7,8.4l-18.5,26.9l-2.4,0l0,-38.7z"/>
        <path class="st0" d="m309.3,62.9l2.1,0l0.3,5.8l0.2,0c4,-3.9 9.7,-6.8 14.9,-6.8c11.1,0 16.5,7.8 16.5,19.8c0,13.1 -8.5,20.9 -18.3,20.9c-3.7,0 -9.2,-2.1 -13.3,-5.7l-0.2,0l0.2,8.1l0,14.6l-2.4,0l0,-56.7zm31.4,18.8c0,-9.9 -4,-17.5 -14.1,-17.5c-4.3,0 -9.7,2.4 -14.9,7.6l0,22.4c4.9,4.5 10.3,6.2 13.4,6.2c9.1,-0.1 15.6,-7.9 15.6,-18.7z"/>
        <path class="st0" d="m356.7,92.1c0,-8.7 8.9,-12.7 30.3,-14.7c0,-6.8 -2.6,-13.3 -12,-13.3c-6.2,0 -12.1,3.2 -15.1,5.5l-1.3,-1.9c2.8,-2.1 9.6,-5.8 16.5,-5.8c10.3,0 14.3,6.8 14.3,14.6l0,25.1l-2.1,0l-0.3,-6l-0.2,0c-4.5,3.6 -10.7,7 -16.5,7c-6.8,-0.1 -13.6,-3.1 -13.6,-10.5zm30.3,0.7l0,-13.3c-20.9,1.9 -27.7,5.8 -27.7,12.5c0,6 5.7,8.3 11.2,8.3c5.2,0 10.7,-2.5 16.5,-7.5z"/>
        <path class="st0" d="m400.9,102.1l0.6,-2.4c0.5,0.2 1,0.3 1.6,0.3c3.2,0 5.2,-3.2 6,-10.2c1.1,-9 2.2,-17.9 3.2,-26.9l23.3,0l0,38.7l-2.4,0l0,-36.5l-19,0c-1,8.3 -1.9,16.6 -2.9,24.9c-1,8.6 -3.7,12.5 -7.9,12.5c-1,0 -1.6,-0.1 -2.5,-0.4z"/>
        <path class="st0" d="m457.2,62.9l2.4,0l0,17.3l14.8,0l15.6,21.4l-2.8,0l-14.1,-19.1l-13.6,0l0,19.1l-2.4,0l0,-38.7l0.1,0zm15,19l6.6,-11.6c3.8,-6.6 5.4,-8.4 8.6,-8.4c0.6,0 1.3,0.2 1.6,0.3l-0.6,2.4c-0.5,-0.2 -0.6,-0.2 -1.1,-0.2c-2.1,0 -3.1,1.2 -6.2,6.5l-6.5,11.2l-2.4,-0.2z"/>
        <path class="st0" d="m502.5,92.1c0,-8.7 8.9,-12.7 30.3,-14.7c0,-6.8 -2.6,-13.3 -12,-13.3c-6.2,0 -12.1,3.2 -15.1,5.5l-1.3,-1.9c2.8,-2.1 9.6,-5.8 16.5,-5.8c10.3,0 14.3,6.8 14.3,14.6l0,25.1l-2.1,0l-0.3,-6l-0.2,0c-4.5,3.6 -10.7,7 -16.5,7c-6.8,-0.1 -13.6,-3.1 -13.6,-10.5zm30.3,0.7l0,-13.3c-20.9,1.9 -27.7,5.8 -27.7,12.5c0,6 5.7,8.3 11.2,8.3c5.2,0 10.7,-2.5 16.5,-7.5z"/>
        <path class="st0" d="m597.9,88.3c0,-7.8 6.5,-12.1 12.2,-14.7l0,-0.3c-4.3,-2.4 -8.2,-6.5 -8.2,-12c0,-7.3 6.3,-12.5 14.7,-12.5c10,0 15.5,5.8 15.5,13.4c0,5 -3.7,9.9 -8.3,13.3l0,0.3c5.9,2.9 10.6,5.7 10.6,13.3c0,7.5 -6.5,13.4 -17.7,13.4c-11.6,0 -18.8,-6.1 -18.8,-14.2zm33.9,0.8c0,-9.2 -8.9,-11.3 -19.3,-14.6c-6.8,3.2 -12,7 -12,13.8c0,6.6 6,12 16.1,12c10,0 15.2,-5 15.2,-11.2zm-2.3,-26.9c0,-6 -4.5,-11.2 -12.9,-11.2c-7.3,0 -12.1,4.4 -12.1,10.2c0,7.8 7.5,10.9 16.4,13.6c5.7,-3.7 8.6,-7.9 8.6,-12.6z"/>
        <path class="st0" d="m651.6,62.9l2.4,0l0,17.3l14.8,0l15.6,21.4l-2.8,0l-14.1,-19.1l-13.6,0l0,19.1l-2.4,0l0,-38.7l0.1,0zm15,19l6.6,-11.6c3.8,-6.6 5.4,-8.4 8.6,-8.4c0.6,0 1.3,0.2 1.6,0.3l-0.6,2.4c-0.5,-0.2 -0.6,-0.2 -1.1,-0.2c-2.1,0 -3.1,1.2 -6.2,6.5l-6.5,11.2l-2.4,-0.2z"/>
        <path class="st0" d="m698.9,62.9l2.4,0l0,20.6c0,4.3 -0.2,9.6 -0.3,14.7l0.3,0c1.6,-2.4 4,-6 5.7,-8.4l18.5,-26.9l2.4,0l0,38.7l-2.4,0l0,-20.6c0,-4.3 0.2,-9.6 0.3,-14.7l-0.3,0c-1.6,2.4 -4,6 -5.7,8.4l-18.5,26.9l-2.4,0l0,-38.7z"/>
    </g>
    <g>
        <rect x="774" y="15.6" class="st1" width="84" height="116.7" fill="black"/>
        <rect x="774" y="15.6" class="st2" width="84" height="22.3"/>
        <circle class="st2" cx="816" cy="80.9" r="32.1"/>
        <rect x="774" y="120.3" class="st2" width="84" height="12"/>
        <ellipse transform="matrix(0.2287,-0.9735,0.9735,0.2287,713.593,954.7198) " class="st1" cx="919.71226" cy="-141.51185" rx="5.2" ry="5.2"/>
        <ellipse transform="matrix(0.7071,-0.7071,0.7071,0.7071,266.4592,697.3249) " class="st1" cx="852.59864" cy="-95.40136" rx="5.2" ry="5.2"/>
        <rect x="827.4" y="23" class="st1" width="24.4" height="8.1"/>
        <path class="st0" d="m816,113.7c-18.1,0 -32.8,-14.7 -32.8,-32.8s14.7,-32.8 32.8,-32.8c18.1,0 32.8,14.7 32.8,32.8s-14.7,32.8 -32.8,32.8zm0,-64.3c-17.4,0 -31.5,14.1 -31.5,31.5s14.1,31.5 31.5,31.5c17.4,0 31.5,-14.1 31.5,-31.5s-14.1,-31.5 -31.5,-31.5z"/>
        <circle class="st1" cx="816" cy="80.9" r="27.9"/>
        <path class="st0" d="m786.2,32.8c-3.2,0 -5.8,-2.6 -5.8,-5.8c0,-3.2 2.6,-5.8 5.8,-5.8c3.2,0 5.8,2.6 5.8,5.8c0,3.2 -2.6,5.8 -5.8,5.8zm0,-10.3c-2.5,0 -4.5,2 -4.5,4.5c0,2.5 2,4.5 4.5,4.5c2.5,0 4.5,-2 4.5,-4.5c0,-2.5 -2,-4.5 -4.5,-4.5z"/>
        <path class="st0" d="m801.9,32.8c-3.2,0 -5.8,-2.6 -5.8,-5.8c0,-3.2 2.6,-5.8 5.8,-5.8c3.2,0 5.8,2.6 5.8,5.8c0,3.2 -2.6,5.8 -5.8,5.8zm0,-10.3c-2.5,0 -4.5,2 -4.5,4.5c0,2.5 2,4.5 4.5,4.5c2.5,0 4.5,-2 4.5,-4.5c0,-2.5 -2,-4.5 -4.5,-4.5z"/>
        <path class="st0" d="m858,38.5l-84,0c-0.4,0 -0.6,-0.3 -0.6,-0.6l0,-22.3c0,-0.4 0.3,-0.6 0.6,-0.6l84,0c0.4,0 0.6,0.3 0.6,0.6l0,22.3c0.1,0.4 -0.2,0.6 -0.6,0.6zm-83.4,-1.2l82.7,0l0,-21l-82.7,0l0,21z"/>
        <path class="st0" d="m851.8,31.7l-24.4,0c-0.4,0 -0.6,-0.3 -0.6,-0.6l0,-8.1c0,-0.4 0.3,-0.6 0.6,-0.6l24.4,0c0.4,0 0.6,0.3 0.6,0.6l0,8.1c0.1,0.3 -0.2,0.6 -0.6,0.6zm-23.7,-1.3l23.1,0l0,-6.8l-23.1,0l0,6.8z"/>
        <path class="st0" d="m858,133l-84,0c-0.4,0 -0.6,-0.3 -0.6,-0.6l0,-116.8c0,-0.4 0.3,-0.6 0.6,-0.6l84,0c0.4,0 0.6,0.3 0.6,0.6l0,116.7c0.1,0.4 -0.2,0.7 -0.6,0.7zm-83.4,-1.3l82.7,0l0,-115.4l-82.7,0l0,115.4z" fill="black"/>
        <path class="st2" d="m789,87.9c3.1,12 14,20.8 27,20.8c12.7,0 23.4,-8.5 26.8,-20.2l-2.1,1.2c-7.4,4.2 -16.5,4.4 -24.1,0.5l0,0l-0.5,-0.3c-8.3,-4.5 -18.2,-5.3 -27.1,-2z"/>
        <path class="st0" d="m816,109.4c-15.7,0 -28.5,-12.8 -28.5,-28.5c0,-15.7 12.8,-28.5 28.5,-28.5s28.5,12.8 28.5,28.5c0,15.7 -12.8,28.5 -28.5,28.5zm0,-55.7c-15,0 -27.2,12.2 -27.2,27.2s12.2,27.2 27.2,27.2s27.2,-12.2 27.2,-27.2s-12.2,-27.2 -27.2,-27.2z"/>
        <path class="st2" d="m831.8,74.3c-2.5,0 -4.6,2.1 -4.6,4.6c0,2.5 2.1,4.6 4.6,4.6s4.6,-2.1 4.6,-4.6c0,-2.6 -2.1,-4.6 -4.6,-4.6zm1.8,4.5c-0.7,0 -1.2,-0.5 -1.2,-1.2c0,-0.7 0.5,-1.2 1.2,-1.2s1.2,0.5 1.2,1.2c0,0.7 -0.5,1.2 -1.2,1.2z"/>
        <circle class="st2" cx="824.4" cy="82.4" r="1.4"/>
        <circle class="st2" cx="829.3" cy="86.8" r="2.6"/>
    </g>
</svg>
